# File generated by ImageToStl.com - Free Image and 3D model conversion tools

o obj1
v 0.01790142 0.0075 -0.01151471
v -0.0078003 0.011 0.00699966
v -0.0010003 0.011 0.00699996
v -0.00100177 -0.01069846 0.04071006
v 0.02353949 -0.007 -0.00446234
v 0.00399835 -0.007 0.03800017
v -0.00780173 -0.01092404 0.0398679
v -0.00780177 -0.01069846 0.04070976
v -0.00780184 -0.00983022 0.0422136
v -0.0078017 -0.011 0.03899966
v 0.01790142 -0.0075 -0.01151471
v -0.0010003 -0.011 0.00699996
v -0.0078003 -0.011 0.00699966
v 0.02381023 -0.007 -0.00547256
v 0.02282547 -0.0075 -0.00564647
v 0.02390143 -0.007 -0.00651444
v -0.0010017 -0.011 0.03899996
v 0.02259989 -0.0075 -0.00480461
v -0.00100173 -0.01092404 0.0398682
v 0.00399835 0.007 0.03800017
v 0.02353949 0.007 -0.00446234
v -0.00100177 0.01069846 0.04071006
v -0.00100173 0.01092404 0.0398682
v -0.00780173 0.01092404 0.0398679
v 0.02259989 0.0075 -0.00480461
v -0.0010017 0.011 0.03899996
v 0.02381023 0.007 -0.00547256
v -0.0078017 0.011 0.03899966
v -0.00100191 -0.006 0.04399996
v -0.00100191 -0.00686824 0.043924
v -0.0078018 -0.01033013 0.04149966
v 0.02290143 0.0075 -0.00651471
v -0.00780184 0.00983022 0.0422136
v -0.00100186 -0.00921394 0.04283018
v -0.00100184 -0.00983022 0.0422139
v -0.0010019 -0.0077101 0.04369842
v -0.00780186 -0.00921394 0.04282988
v -0.00780191 0.00686824 0.0439237
v -0.0078019 0.0077101 0.04369812
v -0.00780188 0.0085 0.04332979
v 0.02040142 0.0075 -0.01084484
v 0.01961153 0.0075 -0.01121317
v 0.02111536 0.0075 -0.01034493
v 0.02381032 0.007 -0.00755634
v 0.02390143 0.007 -0.00651444
v 0.02290143 -0.0075 -0.00651471
v 0.02282546 -0.0075 -0.00738295
v -0.0010019 0.0077101 0.04369842
v -0.00100184 0.00983022 0.0422139
v -0.00100186 0.00921394 0.04283018
v 0.02282547 0.0075 -0.00564647
v 0.02259989 0.0075 -0.00822481
v 0.02223156 0.0075 -0.00901471
v 0.02309771 0.007 -0.00951448
v -0.00780186 0.00921394 0.04282988
v -0.00780177 0.01069846 0.04070976
v -0.0010018 -0.01033013 0.04149996
v -0.00100188 -0.0085 0.04333008
v 0.01876966 0.0075 -0.01143875
v 0.02173164 0.0075 -0.00972865
v 0.02259989 -0.0075 -0.00822481
v 0.02223156 -0.0075 -0.00901471
v 0.02353967 -0.007 -0.00856658
v -0.0025 -0.0075 -0.00433012
v -0.00171011 -0.0075 -0.00469846
v -0.00100191 0.00686824 0.043924
v -0.00100191 0.006 0.04399996
v -0.00100188 0.0085 0.04333008
v -0.0010018 0.01033013 0.04149996
v 0.02282546 0.0075 -0.00738295
v -0.00780188 -0.0085 0.04332979
v -0.0078019 -0.0077101 0.04369812
v -0.00780191 -0.00686824 0.0439237
v 0.02381032 -0.007 -0.00755634
v 0.02353967 0.007 -0.00856658
v -0.0025 0.0075 -0.00433012
v -0.00171011 0.0075 -0.00469846
v -0.0059088 -0.007 -0.00104215
v -0.00563807 -0.007 -0.00205237
v 0.01584955 -0.007 -0.01215295
v 0.01619132 -0.0075 -0.01121317
v -0.00205188 -0.007 -0.00563825
v -0.0078018 0.01033013 0.04149966
v 0.01995379 0.007 -0.01215277
v 0.02175835 -0.007 -0.0111108
v 0.02111536 -0.0075 -0.01034493
v 0.02090165 -0.007 -0.01171073
v 0.02173164 -0.0075 -0.00972865
v 0.02249786 -0.007 -0.01037123
v 0.01961153 -0.0075 -0.01121317
v 0.02040142 -0.0075 -0.01084484
v -0.00563807 0.007 -0.00205237
v -0.0059088 0.007 -0.00104215
v -0.0045961 -0.007 -0.00385693
v -0.00385652 -0.007 -0.00459643
v 0.01619132 0.0075 -0.01121317
v 0.01584955 0.007 -0.01215295
v 0.01703318 -0.0075 -0.01143874
v -0.00299978 -0.007 -0.00519628
v -0.00205188 0.007 -0.00563825
v 0.02309771 -0.007 -0.00951448
v 0.01894357 0.007 -0.01242351
v 0.02090165 0.007 -0.01171073
v -0.0045961 0.007 -0.00385693
v -0.00385652 0.007 -0.00459643
v 0.01703318 0.0075 -0.01143874
v -0.00299978 0.007 -0.00519628
v 0.01790169 0.007 -0.01251471
v 0.02175835 0.007 -0.0111108
v 0.01876966 -0.0075 -0.01143875
v 0.01894357 -0.007 -0.01242351
v 0.01995379 -0.007 -0.01215277
v 0.0168598 -0.007 -0.0124236
v -0.00519602 -0.007 -0.00300023
v 0.0168598 0.007 -0.0124236
v 0.02249786 0.007 -0.01037123
v 0.01790169 -0.007 -0.01251471
v -0.00519602 0.007 -0.00300023
v -0.00780191 0.006 0.04399966
v -0.00780191 -0.006 0.04399966
vn 1E-05 0.9826 -0.18574
vn 0.66793 -0.67778 0.30738
vn -1E-05 -0.96593 0.25882
vn -1 -0 -4E-05
vn 1E-05 -0.9826 -0.18574
vn 0.44688 -0.89374 0.03912
vn 0.28213 -0.95639 0.0756
vn 0.43329 -0.89375 0.1161
vn 0.4333 -0.89374 0.11612
vn 0.52817 -0.8202 0.21979
vn -1E-05 -0.96593 0.25882
vn 0.29568 -0.95165 0.08327
vn 0.42009 -0.89443 0.15339
vn -0 -0.99619 0.08716
vn -0 -0.99619 0.08716
vn 0.66793 0.67778 0.30738
vn 0.52817 0.8202 0.21979
vn -1E-05 0.96593 0.25882
vn 0.29568 0.95165 0.08327
vn 0.42009 0.89443 0.15339
vn 0.4333 0.89374 0.11612
vn -0 0.99619 0.08716
vn -0 0.99619 0.08716
vn 0.76233 -0.0564 0.64473
vn -1 -0 -4E-05
vn -1 -0 -4E-05
vn -2E-05 -0.90631 0.42262
vn 0.14489 0.98945 1E-05
vn -1 0 -4E-05
vn 0.70574 -0.50095 0.50098
vn -3E-05 -0.70711 0.70711
vn 0.75105 -0.17088 0.63775
vn -3E-05 -0.70711 0.70711
vn -1 0 -4E-05
vn 0.0581 0.99051 -0.12459
vn 0.07402 0.99164 -0.10572
vn 0.44688 0.89374 -0.03908
vn 0.44686 -0.89375 0.03909
vn 0.13818 -0.99033 -0.01209
vn 0.14489 -0.98945 1E-05
vn 0.17302 -0.9848 0.01514
vn -4E-05 0.42262 0.90631
vn 0.70574 0.50095 0.50098
vn -3E-05 0.70711 0.70711
vn 0.28213 0.95639 0.0756
vn 0.17302 0.9848 0.01514
vn 0.43329 0.89375 0.1161
vn 0.44688 0.89374 0.03912
vn 0.44686 0.89375 0.03909
vn 0.11312 0.99218 -0.05275
vn 0.40655 0.89375 -0.18957
vn -4E-05 0.57358 0.81915
vn -1 0 -4E-05
vn -3E-05 0.70711 0.70711
vn -1E-05 0.96593 0.25882
vn 0.66873 -0.67384 0.31424
vn 0.68762 -0.59475 0.41648
vn -2E-05 -0.90631 0.42262
vn -3E-05 -0.81915 0.57357
vn -3E-05 -0.81915 0.57357
vn 0.72257 -0.3965 0.56629
vn 0.73775 -0.28529 0.61183
vn 0.01496 0.98516 -0.17096
vn 0.03906 0.98855 -0.14577
vn 0.10084 0.99239 -0.07061
vn 0.08801 0.99222 -0.08801
vn 0.12538 -0.99154 -0.03359
vn 0.11312 -0.99218 -0.05275
vn 0.43329 -0.89375 -0.1161
vn -0.16889 -0.91668 -0.36219
vn 0.76233 0.0564 0.64473
vn 0.75105 0.17088 0.63775
vn 0.72257 0.3965 0.56629
vn 0.73775 0.28529 0.61183
vn -4E-05 0.42262 0.90631
vn 0.66873 0.67384 0.31424
vn 0.68762 0.59475 0.41648
vn -3E-05 0.81915 0.57357
vn 0.13818 0.99033 -0.01209
vn 0.12538 0.99154 -0.03359
vn 0.44686 0.89375 -0.0391
vn -4E-05 -0.57358 0.81915
vn -1 -0 -4E-05
vn -4E-05 -0.42262 0.90631
vn -4E-05 -0.42262 0.90631
vn -1 -0 -4E-05
vn 0.4333 -0.89374 -0.11608
vn 0.44688 -0.89374 -0.03908
vn 0.44686 -0.89375 -0.0391
vn 0.40657 0.89374 -0.18956
vn 0.4333 0.89374 -0.11608
vn 0.43329 0.89375 -0.1161
vn -0.16889 0.91668 -0.36219
vn -0.96396 -0.06354 -0.25834
vn -0.15294 -0.89443 -0.42025
vn -0.12503 -0.93077 -0.34357
vn -0.15294 -0.89443 -0.42025
vn -3E-05 0.81915 0.57357
vn -1 0 -4E-05
vn -1 0 -4E-05
vn -2E-05 0.90631 0.42262
vn 0.18957 0.89375 -0.40654
vn 0.25731 -0.89374 -0.36745
vn 0.10084 -0.99239 -0.07061
vn 0.08801 -0.99222 -0.08801
vn 0.36744 -0.89375 -0.25729
vn 0.31719 -0.89375 -0.31719
vn 0.31721 -0.89374 -0.31718
vn 0.0581 -0.99051 -0.12459
vn 0.07402 -0.99164 -0.10572
vn 0.25729 -0.89375 -0.36745
vn -0.96396 0.06354 -0.25834
vn -0.42029 -0.80416 -0.42033
vn -0.15294 0.89443 -0.42025
vn -0.12503 0.93077 -0.34357
vn -0.0184 -0.97746 -0.21033
vn -0.07607 -0.95583 -0.28389
vn -0.1161 -0.89375 -0.43328
vn -0.18957 -0.89375 -0.40654
vn -0.18956 -0.89374 -0.40656
vn -0.27744 -0.87522 -0.39626
vn -0.22971 -0.8944 -0.38376
vn -0.15294 0.89443 -0.42025
vn 0.36747 -0.89374 -0.25728
vn 0.40655 -0.89375 -0.18957
vn 0.40657 -0.89374 -0.18956
vn 0.1161 0.89375 -0.43329
vn 0.11612 0.89374 -0.4333
vn 0.25729 0.89375 -0.36745
vn 0.1896 0.89374 -0.40655
vn -0.42029 0.80416 -0.42033
vn -0.0184 0.97746 -0.21033
vn -0.07607 0.95583 -0.28389
vn -0.1161 0.89375 -0.43328
vn -0.27744 0.87522 -0.39626
vn -0.22971 0.8944 -0.38376
vn -0.18957 0.89375 -0.40654
vn -0.18956 0.89374 -0.40656
vn 0.0391 0.89375 -0.44686
vn 0.03912 0.89374 -0.44688
vn 0.31719 0.89375 -0.31719
vn 0.25731 0.89374 -0.36745
vn 0.1161 -0.89375 -0.43329
vn 0.01496 -0.98516 -0.17096
vn 0.03906 -0.98855 -0.14577
vn 0.11612 -0.89374 -0.4333
vn 0.18957 -0.89375 -0.40654
vn 0.1896 -0.89374 -0.40655
vn -0.0391 -0.89375 -0.44686
vn -0.11608 -0.89374 -0.43331
vn -0.82129 -0.42282 -0.38302
vn -0.60864 -0.66925 -0.42621
vn -0.0391 0.89375 -0.44686
vn -0.03908 0.89374 -0.44688
vn -0.11608 0.89374 -0.43331
vn 0.31721 0.89374 -0.31718
vn 0.36747 0.89374 -0.25728
vn 0.36744 0.89375 -0.25729
vn -0.03908 -0.89374 -0.44688
vn 0.0391 -0.89375 -0.44686
vn 0.03912 -0.89374 -0.44688
vn -0.82129 0.42282 -0.38302
vn -0.60864 0.66925 -0.42621
vn 0 -1 0
vn 0.90842 0 0.41805
vn 0.99619 0 0.0872
vn 0.96592 0 0.25886
vn -0 1 0
vn -1 0 -4E-05
vn 0.76819 0 0.64022
vn -4E-05 0 1
vn -4E-05 -0.08716 0.99619
vn -1 0 -4E-05
vn -4E-05 -0.25882 0.96593
vn -4E-05 -0.25882 0.96593
vn -1 0 -4E-05
vn -1 -0 -4E-05
vn -4E-05 0.08716 0.99619
vn -4E-05 0.08716 0.99619
vn -4E-05 0.25882 0.96593
vn -4E-05 0.25882 0.96593
vn -1 0 -4E-05
vn -1 0 -4E-05
vn 0.9962 0 -0.08711
vn 0.96594 0 -0.25878
vn -0.97344 0 -0.22896
vn -0.96591 0 -0.25886
vn -0.34198 0 -0.93971
vn 0.90633 0 -0.42258
vn -0.70708 0 -0.70714
vn -0.57354 0 -0.81918
vn -0.42258 0 -0.90633
vn 0.57361 0 -0.81913
vn 0.42266 0 -0.90629
vn 0.25886 0 -0.96591
vn -0.25878 -0 -0.96594
vn 0.81918 0 -0.57354
vn 0.70714 0 -0.70708
vn 0.0872 0 -0.99619
vn -0.08711 0 -0.9962
vn -0.90629 0 -0.42266
vn -0.81913 0 -0.57361
f 1//1 2//1 3//1
f 4//2 5//2 6//2
f 7//3 4//3 8//3
f 7//4 9//4 10//4
f 11//5 12//5 13//5
f 14//6 15//6 16//6
f 17//7 15//7 18//7
f 14//8 18//8 15//8
f 18//9 14//9 5//9
f 19//10 5//10 4//10
f 4//11 7//11 19//11
f 17//12 18//12 19//12
f 19//13 18//13 5//13
f 19//14 10//14 17//14
f 19//15 7//15 10//15
f 20//16 21//16 22//16
f 22//17 21//17 23//17
f 24//18 22//18 23//18
f 25//19 26//19 23//19
f 21//20 25//20 23//20
f 27//21 25//21 21//21
f 23//22 26//22 28//22
f 28//23 24//23 23//23
f 29//24 30//24 6//24
f 31//25 7//25 8//25
f 7//26 31//26 9//26
f 31//27 8//27 4//27
f 32//28 3//28 26//28
f 28//29 33//29 24//29
f 6//30 34//30 35//30
f 35//31 34//31 9//31
f 30//32 36//32 6//32
f 9//33 34//33 37//33
f 38//34 39//34 40//34
f 3//35 41//35 42//35
f 43//36 41//36 3//36
f 44//37 32//37 45//37
f 16//38 15//38 46//38
f 47//39 46//39 12//39
f 12//40 46//40 17//40
f 46//41 15//41 17//41
f 48//42 40//42 39//42
f 49//43 50//43 20//43
f 49//44 33//44 50//44
f 26//45 25//45 51//45
f 51//46 32//46 26//46
f 51//47 25//47 27//47
f 51//48 27//48 45//48
f 32//49 51//49 45//49
f 52//50 53//50 3//50
f 52//51 54//51 53//51
f 55//52 40//52 50//52
f 55//53 33//53 40//53
f 50//54 33//54 55//54
f 56//55 22//55 24//55
f 57//56 4//56 6//56
f 6//57 35//57 57//57
f 57//58 31//58 4//58
f 57//59 9//59 31//59
f 57//60 35//60 9//60
f 58//61 34//61 6//61
f 36//62 58//62 6//62
f 59//63 1//63 3//63
f 3//64 42//64 59//64
f 53//65 60//65 3//65
f 60//66 43//66 3//66
f 61//67 47//67 12//67
f 62//68 61//68 12//68
f 61//69 63//69 47//69
f 64//70 65//70 13//70
f 66//71 67//71 20//71
f 48//72 66//72 20//72
f 20//73 50//73 68//73
f 68//74 48//74 20//74
f 68//52 50//52 40//52
f 68//75 40//75 48//75
f 20//76 22//76 69//76
f 69//77 49//77 20//77
f 69//78 33//78 49//78
f 70//79 3//79 32//79
f 70//80 52//80 3//80
f 44//81 70//81 32//81
f 71//82 37//82 34//82
f 34//82 58//82 71//82
f 9//83 37//83 71//83
f 71//84 36//84 72//84
f 71//85 58//85 36//85
f 72//86 73//86 71//86
f 47//87 63//87 74//87
f 16//88 46//88 74//88
f 74//89 46//89 47//89
f 75//90 54//90 52//90
f 75//91 70//91 44//91
f 75//92 52//92 70//92
f 76//93 2//93 77//93
f 78//94 79//94 13//94
f 65//95 80//95 81//95
f 81//96 13//96 65//96
f 82//97 80//97 65//97
f 83//98 33//98 69//98
f 24//99 33//99 83//99
f 83//100 56//100 24//100
f 22//101 56//101 83//101
f 83//101 69//101 22//101
f 84//102 42//102 41//102
f 85//103 86//103 87//103
f 88//104 62//104 12//104
f 86//105 88//105 12//105
f 88//106 89//106 62//106
f 88//107 86//107 85//107
f 88//108 85//108 89//108
f 90//109 91//109 12//109
f 91//110 86//110 12//110
f 91//111 87//111 86//111
f 92//112 93//112 2//112
f 94//113 95//113 13//113
f 96//114 97//114 77//114
f 96//115 77//115 2//115
f 98//116 11//116 13//116
f 98//117 13//117 81//117
f 98//118 81//118 80//118
f 64//119 99//119 65//119
f 99//120 82//120 65//120
f 95//121 99//121 13//121
f 99//122 64//122 13//122
f 77//123 97//123 100//123
f 62//124 89//124 101//124
f 101//125 61//125 62//125
f 63//126 61//126 101//126
f 102//127 59//127 42//127
f 42//128 84//128 102//128
f 103//129 41//129 43//129
f 103//130 84//130 41//130
f 104//131 2//131 105//131
f 106//132 2//132 1//132
f 106//133 96//133 2//133
f 97//134 96//134 106//134
f 107//135 105//135 2//135
f 107//136 2//136 76//136
f 107//137 76//137 77//137
f 77//138 100//138 107//138
f 108//139 1//139 59//139
f 108//140 59//140 102//140
f 60//141 109//141 43//141
f 109//142 103//142 43//142
f 110//143 111//143 90//143
f 12//144 11//144 110//144
f 110//145 90//145 12//145
f 90//146 111//146 112//146
f 112//147 91//147 90//147
f 87//148 91//148 112//148
f 11//149 98//149 113//149
f 113//150 98//150 80//150
f 79//151 114//151 13//151
f 114//152 94//152 13//152
f 115//153 106//153 1//153
f 108//154 115//154 1//154
f 106//155 115//155 97//155
f 116//156 109//156 60//156
f 53//157 54//157 116//157
f 116//158 60//158 53//158
f 11//159 113//159 117//159
f 117//160 110//160 11//160
f 117//161 111//161 110//161
f 118//162 92//162 2//162
f 118//163 2//163 104//163
f 13//164 12//164 10//164
f 10//164 12//164 17//164
f 21//165 6//165 5//165
f 6//165 21//165 20//165
f 27//166 14//166 16//166
f 45//166 27//166 16//166
f 27//167 21//167 5//167
f 5//167 14//167 27//167
f 28//168 26//168 3//168
f 28//168 3//168 2//168
f 13//169 10//169 28//169
f 28//169 2//169 13//169
f 29//170 6//170 20//170
f 20//170 67//170 29//170
f 29//171 67//171 119//171
f 119//171 120//171 29//171
f 73//172 29//172 120//172
f 29//172 73//172 30//172
f 33//173 28//173 10//173
f 10//173 9//173 33//173
f 36//174 30//174 73//174
f 36//175 73//175 72//175
f 38//176 120//176 119//176
f 38//177 73//177 120//177
f 66//178 119//178 67//178
f 66//179 38//179 119//179
f 66//180 39//180 38//180
f 66//181 48//181 39//181
f 71//182 33//182 9//182
f 33//182 71//182 40//182
f 73//183 38//183 71//183
f 71//183 38//183 40//183
f 74//184 45//184 16//184
f 74//184 44//184 45//184
f 74//185 75//185 44//185
f 75//185 74//185 63//185
f 13//186 2//186 93//186
f 93//186 78//186 13//186
f 93//187 92//187 79//187
f 79//187 78//187 93//187
f 82//188 100//188 80//188
f 100//188 97//188 80//188
f 101//189 75//189 63//189
f 75//189 101//189 54//189
f 94//190 104//190 95//190
f 104//190 105//190 95//190
f 95//191 105//191 107//191
f 107//191 99//191 95//191
f 107//192 100//192 82//192
f 82//192 99//192 107//192
f 109//193 87//193 103//193
f 85//193 87//193 109//193
f 112//194 103//194 87//194
f 84//194 103//194 112//194
f 112//195 102//195 84//195
f 112//195 111//195 102//195
f 97//196 115//196 80//196
f 115//196 113//196 80//196
f 101//197 116//197 54//197
f 116//197 101//197 89//197
f 85//198 109//198 116//198
f 116//198 89//198 85//198
f 102//199 111//199 117//199
f 117//199 108//199 102//199
f 113//200 115//200 117//200
f 117//200 115//200 108//200
f 79//201 92//201 118//201
f 118//201 114//201 79//201
f 118//202 104//202 94//202
f 94//202 114//202 118//202
# Vertices: 120, normals: 202, texture coordinates: 0, faces: 236

