# File generated by ImageToStl.com - Free Image and 3D model conversion tools

o obj1
v 0.00051025 -0.0055 -0.00748262
v 0.02445109 -0.012 0.0065394
v -0.00144378 -0.0055 -0.00735972
v 0.03107668 -0.0045 -0.00790243
v 0.03268344 -0.0045 -0.00785133
v 0.03268344 0.0045 -0.00785133
v 0.03355606 0.005 -0.00657311
v 0.03421896 0.0045 -0.00737544
v 0.03203121 0.005 -0.00692238
v 0.00051025 0.0055 -0.00748262
v 0.03107668 0.0045 -0.00790243
v 0.02414494 -0.0115 0.01102897
v 0.0246805 -0.0045 0.01452363
v 0.02289211 -0.0045 0.0143636
v -0.00242951 -0.0055 0.0070956
v 0.03489836 0.005 -0.00576973
v 0.03557301 0.0045 -0.00650893
v 0.0376799 -0.0045 -0.00229944
v 0.03828902 -0.0045 0.00768199
v 0.02631131 -0.012 0.00841294
v 0.02289211 0.0045 0.0143636
v 0.0246805 0.0045 0.01452363
v 0.02414494 0.0115 0.01102897
v -0.00242951 0.0055 0.0070956
v 0.03266564 -0.0045 0.01403633
v 0.02233941 -0.012 0.00884612
v -0.00735972 -0.0055 0.00144378
v -0.00748262 -0.0055 -0.00051025
v -0.00673527 -0.0055 0.00329942
v 0.02629064 -0.012 0.00822341
v 0.03203121 -0.005 -0.00692238
v 0.02357186 -0.012 0.00667797
v -0.00329942 -0.0055 -0.00673527
v 0.02357186 0.012 0.00667797
v -0.00144378 0.0055 -0.00735972
v -0.00329942 0.0055 -0.00673527
v -0.00493021 0.0055 -0.00565181
v 0.0373679 -0.0045 -0.00387644
v 0.0259599 -0.012 0.00739706
v 0.0359267 -0.005 -0.00459088
v 0.03266564 0.0045 0.01403633
v 0.02239996 -0.012 0.0079581
v -0.0070956 -0.0055 -0.00242951
v -0.00622502 -0.0055 -0.0041832
v -0.0041832 -0.0055 0.00622502
v 0.02332667 -0.012 0.01027349
v -0.00493021 -0.0055 -0.00565181
v 0.02445109 0.012 0.0065394
v 0.02283982 0.012 0.00718429
v -0.00622502 0.0055 -0.0041832
v 0.03420322 -0.0045 0.01373767
v 0.02524398 -0.0115 0.01085577
v 0.03561111 -0.0045 0.01305123
v 0.02505819 -0.012 0.01039157
v 0.02579023 -0.012 0.00988524
v 0.02623008 -0.012 0.00911143
v 0.03766941 -0.0045 0.01072539
v 0.03679336 -0.0045 0.0120238
v 0.02524398 0.0115 0.01085577
v 0.03420322 0.0045 0.01373767
v 0.03561111 0.0045 0.01305123
v 0.02505819 0.012 0.01039157
v 0.02417896 0.012 0.01053013
v 0.02579023 0.012 0.00988524
v 0.03679336 0.0045 0.0120238
v 0.03766941 0.0045 0.01072539
v 0.03817955 0.0045 0.00924448
v 0.02623008 0.012 0.00911143
v 0.03817955 -0.0045 0.00924448
v 0.03664839 -0.0045 -0.00531401
v 0.02341651 0.0115 0.01080963
v 0.02307959 0.0115 0.01070817
v 0.02417896 -0.012 0.01053013
v 0.02267015 -0.012 0.00967248
v 0.02307959 -0.0115 0.01070817
v -0.00565181 -0.0055 0.00493021
v 0.02283982 -0.012 0.00718429
v 0.02530337 0.012 0.00679604
v -0.0070956 0.0055 -0.00242951
v 0.02239996 0.012 0.0079581
v -0.00748262 0.0055 -0.00051025
v 0.03664839 0.0045 -0.00531401
v 0.0359267 0.005 -0.00459088
v 0.0373679 0.0045 -0.00387644
v 0.02450581 0.0115 0.0109721
v 0.03421896 -0.0045 -0.00737544
v 0.03355606 -0.005 -0.00657311
v 0.02530337 -0.012 0.00679604
v 0.02450581 -0.0115 0.0109721
v 0.02341651 -0.0115 0.01080963
v 0.0259599 0.012 0.00739706
v 0.02233941 0.012 0.00884612
v -0.00735972 0.0055 0.00144378
v -0.00673527 0.0055 0.00329942
v 0.03489836 -0.005 -0.00576973
v 0.03557301 -0.0045 -0.00650893
v 0.02629064 0.012 0.00822341
v 0.0376799 0.0045 -0.00229944
v -0.00565181 0.0055 0.00493021
v 0.02267015 0.012 0.00967248
v 0.02631131 0.012 0.00841294
v 0.03828902 0.0045 0.00768199
v 0.02332667 0.012 0.01027349
v -0.0041832 0.0055 0.00622502
vn -0.02428 -0.92217 -0.38602
vn 0.01855 -0.812 -0.58336
vn 0.13646 0.88743 -0.44029
vn 0.09591 0.90304 -0.41872
vn 0.01855 0.812 -0.58336
vn 0.02227 0.88678 -0.46166
vn -0.08002 -0.44033 0.89426
vn -0.2296 -0.45177 0.86208
vn 0.22447 0.89942 -0.37505
vn 0.24373 0.89193 -0.38086
vn 0.52901 -0.848 -0.03228
vn -0.08002 0.44033 0.89426
vn -0.2296 0.45177 0.86208
vn 0.05442 -0.44933 0.8917
vn -0.21703 -0.97607 0.01365
vn -0.23165 -0.96967 0.07796
vn 0.51258 -0.85682 -0.0559
vn 0.02227 -0.88678 -0.46166
vn 0.02217 -0.89206 -0.45138
vn -0.09316 -0.95639 -0.27683
vn -0.0535 -0.93909 -0.33949
vn -0.09316 0.95639 -0.27683
vn -0.13401 0.97024 -0.20171
vn 0.4842 -0.8697 -0.0958
vn 0.42011 -0.89176 -0.16815
vn 0.40359 -0.89555 -0.18739
vn 0.05442 0.44933 0.8917
vn -0.1836 -0.97877 -0.09114
vn -0.20137 -0.97867 -0.04061
vn -0.20867 -0.97788 -0.01423
vn -0.26799 -0.79797 0.53984
vn -0.13401 -0.97024 -0.20171
vn -0.02428 0.92217 -0.38602
vn -0.0535 0.93909 -0.33949
vn 0.02217 0.89206 -0.45138
vn 0.09539 0.90415 -0.41644
vn -0.16235 0.9763 -0.14314
vn -0.13622 0.9709 -0.19695
vn 0.16 -0.54392 0.82374
vn 0.32076 -0.68139 0.65789
vn 0.34407 -0.70432 0.62093
vn 0.49767 -0.81994 0.28289
vn 0.48742 -0.80887 0.32887
vn 0.4246 -0.76224 0.48858
vn 0.38417 -0.73751 0.55542
vn 0.16 0.54392 0.82374
vn 0.32076 0.68139 0.65789
vn 0.34407 0.70432 0.62093
vn 0.11147 0.69807 0.7073
vn 0.4246 0.76224 0.48858
vn 0.38417 0.73751 0.55542
vn 0.52152 0.83411 0.17966
vn 0.49767 0.81994 0.28289
vn 0.48742 0.80887 0.32887
vn 0.52152 -0.83411 0.17966
vn 0.5301 -0.84569 0.06164
vn 0.53197 -0.84594 0.03727
vn 0.41005 -0.88867 -0.20523
vn -0.24182 0.54459 0.80308
vn -0.24182 0.54459 0.80308
vn -0.20645 0.69807 0.68562
vn -0.20645 0.69807 0.68562
vn 0.11147 -0.69807 0.7073
vn -0.23421 -0.96765 0.09374
vn -0.25918 -0.70344 0.66182
vn -0.20645 -0.69807 0.68562
vn -0.24665 -0.95515 0.16387
vn -0.25934 -0.92331 0.28329
vn -0.26066 -0.91905 0.29565
vn -0.13622 -0.9709 -0.19695
vn -0.16235 -0.9763 -0.14314
vn -0.17904 -0.97856 -0.10177
vn 0.20902 0.91342 -0.34924
vn 0.12074 0.90811 -0.40095
vn -0.1836 0.97877 -0.09114
vn -0.17904 0.97856 -0.10177
vn -0.20137 0.97867 -0.04061
vn 0.41005 0.88867 -0.20523
vn 0.3335 0.8937 -0.30013
vn 0.3319 0.89778 -0.28953
vn 0.13267 0.52317 0.84184
vn 0.13267 0.52317 0.84184
vn 0.11147 0.69807 0.7073
vn 0.11147 0.69807 0.7073
vn 0.13646 -0.88743 -0.44029
vn 0.12074 -0.90811 -0.40095
vn 0.09591 -0.90304 -0.41872
vn 0.09539 -0.90415 -0.41644
vn 0.11147 -0.69807 0.7073
vn 0.11147 -0.69807 0.7073
vn 0.13267 -0.52317 0.84184
vn 0.13267 -0.52317 0.84184
vn -0.24182 -0.54459 0.80308
vn -0.24182 -0.54459 0.80309
vn -0.20645 -0.69807 0.68562
vn -0.20645 -0.69807 0.68562
vn 0.31198 0.91028 -0.27215
vn 0.27428 0.91379 -0.29961
vn 0.40359 0.89555 -0.18739
vn -0.21703 0.97607 0.01365
vn -0.20867 0.97788 -0.01423
vn -0.23165 0.96967 0.07796
vn 0.24373 -0.89193 -0.38086
vn 0.22447 -0.89942 -0.37505
vn 0.20902 -0.91342 -0.34924
vn 0.27428 -0.91379 -0.29961
vn 0.31198 -0.91028 -0.27215
vn 0.3335 -0.8937 -0.30013
vn 0.3319 -0.89778 -0.28953
vn 0.4842 0.8697 -0.0958
vn 0.42011 0.89176 -0.16815
vn -0.24665 0.95515 0.16387
vn -0.23421 0.96765 0.09374
vn 0.52901 0.848 -0.03228
vn 0.51258 0.85682 -0.0559
vn 0.53197 0.84594 0.03727
vn 0.5301 0.84569 0.06164
vn -0.26066 0.91905 0.29565
vn -0.25934 0.92331 0.28329
vn -0.26799 0.79797 0.53984
vn -0.20645 0.69807 0.68562
vn -0.25918 0.70344 0.66182
vn -0.08912 0 0.99602
vn -0.27589 0 0.96119
vn -0.27589 0 0.96119
vn -0.01373 -0 -0.99991
vn 0.03179 0 -0.99949
vn -0.06277 0 -0.99803
vn -0.31894 0 -0.94777
vn 0.99814 0 -0.06091
vn -0.98027 0 -0.19767
vn -0.8957 0 -0.44465
vn -0.99803 0 0.06277
vn -0.94777 0 0.31894
vn -0.44465 0 0.8957
vn 0.29603 0 -0.95518
vn 0.53901 0 -0.8423
vn 0.98099 0 -0.19408
vn 0.19067 0 0.98165
vn 0.06091 0 0.99814
vn -0.7501 0 -0.66133
vn -0.55338 0 -0.83293
vn 0.43825 0 0.89885
vn 0.65596 -0 0.7548
vn 0.82896 0 0.5593
vn 0.94547 0 0.3257
vn 0.99755 0 0.06989
vn -0.83293 0 0.55338
vn -0.66133 0 0.7501
vn 0 -1 0
vn 0.89425 0 -0.44758
vn 0.74331 0 -0.66895
vn 0 1 0
f 1//1 2//1 3//1
f 1//2 4//2 5//2
f 6//3 7//3 8//3
f 6//4 9//4 7//4
f 10//5 6//5 11//5
f 6//6 10//6 9//6
f 12//7 13//7 14//7
f 12//8 14//8 15//8
f 16//9 8//9 7//9
f 16//10 17//10 8//10
f 18//11 19//11 20//11
f 21//12 22//12 23//12
f 23//13 24//13 21//13
f 12//14 25//14 13//14
f 26//15 27//15 28//15
f 27//16 26//16 29//16
f 30//17 18//17 20//17
f 31//18 1//18 5//18
f 31//19 2//19 1//19
f 32//20 33//20 3//20
f 32//21 3//21 2//21
f 34//22 35//22 36//22
f 34//23 36//23 37//23
f 18//24 30//24 38//24
f 38//25 30//25 39//25
f 38//26 39//26 40//26
f 41//27 23//27 22//27
f 42//28 43//28 44//28
f 43//29 42//29 28//29
f 42//30 26//30 28//30
f 15//31 45//31 46//31
f 47//32 33//32 32//32
f 10//33 35//33 48//33
f 35//34 34//34 48//34
f 48//35 9//35 10//35
f 7//36 9//36 48//36
f 49//37 37//37 50//37
f 49//38 34//38 37//38
f 51//39 25//39 52//39
f 52//40 53//40 51//40
f 53//41 52//41 54//41
f 55//42 56//42 57//42
f 55//43 57//43 58//43
f 58//44 53//44 55//44
f 55//45 53//45 54//45
f 59//46 41//46 60//46
f 60//47 61//47 59//47
f 59//48 61//48 62//48
f 59//49 62//49 63//49
f 64//50 61//50 65//50
f 62//51 61//51 64//51
f 66//52 67//52 68//52
f 66//53 68//53 64//53
f 66//54 64//54 65//54
f 57//55 56//55 69//55
f 69//56 56//56 20//56
f 19//57 69//57 20//57
f 70//58 38//58 40//58
f 71//59 24//59 23//59
f 71//60 72//60 24//60
f 71//61 23//61 63//61
f 71//62 63//62 72//62
f 54//63 52//63 73//63
f 26//64 74//64 29//64
f 15//65 46//65 75//65
f 75//66 46//66 73//66
f 29//67 74//67 76//67
f 76//68 74//68 46//68
f 76//69 46//69 45//69
f 77//70 47//70 32//70
f 47//71 77//71 44//71
f 77//72 42//72 44//72
f 78//73 16//73 7//73
f 48//74 78//74 7//74
f 79//75 80//75 50//75
f 80//76 49//76 50//76
f 80//77 79//77 81//77
f 82//78 83//78 84//78
f 16//79 82//79 17//79
f 83//80 82//80 16//80
f 85//81 23//81 41//81
f 41//82 59//82 85//82
f 23//83 85//83 63//83
f 85//84 59//84 63//84
f 5//85 86//85 87//85
f 87//86 88//86 2//86
f 87//87 31//87 5//87
f 31//88 87//88 2//88
f 12//89 73//89 89//89
f 89//90 73//90 52//90
f 89//91 25//91 12//91
f 89//92 52//92 25//92
f 90//93 12//93 15//93
f 15//94 75//94 90//94
f 90//95 73//95 12//95
f 90//96 75//96 73//96
f 91//97 83//97 16//97
f 78//98 91//98 16//98
f 91//99 84//99 83//99
f 92//100 81//100 93//100
f 92//101 80//101 81//101
f 93//102 94//102 92//102
f 95//103 86//103 96//103
f 95//104 87//104 86//104
f 87//105 95//105 88//105
f 95//106 39//106 88//106
f 95//107 40//107 39//107
f 96//108 70//108 95//108
f 95//109 70//109 40//109
f 97//110 98//110 84//110
f 91//111 97//111 84//111
f 99//112 100//112 94//112
f 100//113 92//113 94//113
f 101//114 102//114 98//114
f 97//115 101//115 98//115
f 101//116 67//116 102//116
f 68//117 67//117 101//117
f 103//118 99//118 104//118
f 103//119 100//119 99//119
f 104//120 24//120 103//120
f 103//121 72//121 63//121
f 24//122 72//122 103//122
f 14//123 13//123 22//123
f 14//123 22//123 21//123
f 24//124 14//124 21//124
f 14//125 24//125 15//125
f 11//126 4//126 1//126
f 1//126 10//126 11//126
f 6//127 4//127 11//127
f 6//127 5//127 4//127
f 1//128 35//128 10//128
f 35//128 1//128 3//128
f 33//129 35//129 3//129
f 35//129 33//129 36//129
f 19//130 18//130 98//130
f 19//130 98//130 102//130
f 43//131 81//131 79//131
f 43//131 28//131 81//131
f 44//132 43//132 50//132
f 43//132 79//132 50//132
f 27//133 81//133 28//133
f 81//133 27//133 93//133
f 27//134 94//134 93//134
f 94//134 27//134 29//134
f 15//135 24//135 45//135
f 45//135 24//135 104//135
f 5//136 6//136 86//136
f 86//136 6//136 8//136
f 86//137 8//137 17//137
f 96//137 86//137 17//137
f 38//138 98//138 18//138
f 84//138 98//138 38//138
f 41//139 25//139 51//139
f 60//139 41//139 51//139
f 41//140 22//140 13//140
f 13//140 25//140 41//140
f 47//141 44//141 50//141
f 50//141 37//141 47//141
f 33//142 47//142 36//142
f 47//142 37//142 36//142
f 61//143 60//143 51//143
f 53//143 61//143 51//143
f 58//144 65//144 61//144
f 61//144 53//144 58//144
f 66//145 65//145 58//145
f 66//145 58//145 57//145
f 69//146 66//146 57//146
f 67//146 66//146 69//146
f 69//147 19//147 102//147
f 102//147 67//147 69//147
f 76//148 94//148 29//148
f 76//148 99//148 94//148
f 76//149 45//149 104//149
f 76//149 104//149 99//149
f 77//150 55//150 54//150
f 20//150 56//150 77//150
f 46//150 74//150 77//150
f 39//150 30//150 77//150
f 77//150 30//150 20//150
f 77//150 32//150 2//150
f 77//150 88//150 39//150
f 26//150 42//150 77//150
f 77//150 73//150 46//150
f 56//150 55//150 77//150
f 2//150 88//150 77//150
f 54//150 73//150 77//150
f 77//150 74//150 26//150
f 38//151 82//151 84//151
f 82//151 38//151 70//151
f 82//152 96//152 17//152
f 82//152 70//152 96//152
f 103//153 34//153 49//153
f 62//153 64//153 103//153
f 63//153 62//153 103//153
f 103//153 48//153 34//153
f 103//153 78//153 48//153
f 103//153 64//153 68//153
f 49//153 80//153 103//153
f 103//153 91//153 78//153
f 80//153 92//153 103//153
f 103//153 97//153 91//153
f 92//153 100//153 103//153
f 103//153 101//153 97//153
f 68//153 101//153 103//153
# Vertices: 104, normals: 153, texture coordinates: 0, faces: 204

